<svg xmlns="http://www.w3.org/2000/svg" viewBox="0 0 512 512" width="512" height="512">
  <rect width="512" height="512" fill="#ffffff"/>
  <g transform="translate(-32.5, 16.6) scale(5.1515)">
    <path fill="#2453FF" d="M88.78,29.59 88.07,25.3c-0.23-1.38-0.77-2.5-1.19-2.5-0.43,0-0.77,1.14-0.77,2.54v1.12c0,1.39-1.14,2.54-2.54,2.54h-1.12c-0.08,0-0.16,0-0.24,0.01v3.08c0.08,0,0.16,0.01,0.24,0.01h4.22c1.39-0.01,2.34-1.13,2.11-2.51"/>
    <path fill="#2453FF" d="m78.67,25.96h-6.84c-0.06,0-0.11,0-0.17,0.01h-7.02c-0.08,0-0.16,0.01-0.24,0.02v-0.65c0-1.39-0.35-2.54-0.77-2.54-0.43,0-0.96,1.13-1.19,2.5l-0.71,4.29c-0.23,1.38,0.72,2.5,2.12,2.5h4.22c0.43,0,0.84-0.07,1.2-0.19-0.13,0.72-0.76,1.26-1.52,1.26h-5.91c-0.96,0-1.68-0.86-1.53-1.8l0.6-3.59c0.16-0.94-0.57-1.8-1.53-1.8H29.95c-0.63,0-1.17,0.37-1.41,0.91L23,35.31c-0.09,0.14-0.08,0.33,0.03,0.46l1.08,1.27c0.13,0.16,0.37,0.18,0.53,0.05l3.77-2.97v18.04c0,0.86,0.69,1.55,1.55,1.55h8.35c0.86,0,1.55-0.69,1.55-1.55v-6.27c0-0.85,0.69-1.55,1.55-1.55h20.85c0.86,0,1.55,0.69,1.55,1.55v6.27c0,0.86,0.69,1.55,1.55,1.55h8.35c0.85,0,1.55-0.69,1.55-1.55v-6.75h-4.44c-1.39,0-2.54-1.14-2.54-2.54v-4.34c0-0.83,0.4-1.56,1.02-2.02v5.18c0,1.39,1.14,2.54,2.54,2.54h6.84c1.39,0,2.54-1.14,2.54-2.54V28.5c-0.01-1.39-1.15-2.54-2.55-2.54"/>
  </g>
  <g transform="translate(-2.2, 97.7) scale(0.5067)">
    <path d="M822.2 523.2c6.1-1.1 11.9-3.6 16.9-7.4 4.5-4.8 6.8-11.2 6.3-17.8 0-5.3-1.5-10.6-4.2-15.1-4.1-7-11.5-11.5-19.7-11.9h-4.1l-9.5-.3h-43c-2.6 0-3.7 1.1-3.7 3.7v75.3c0 2.6 1.1 3.7 3.7 3.7h11.2c2.6 0 3.7-1.1 3.7-3.7v-24.9h13.7c3 .2 5.9 1.4 8.1 3.4l21.7 21.8c2 2 4.6 3.2 7.4 3.4h16.6c2.6 0 3.2-1.5 1.4-3.4zm-2.8-16.1h-39.6v-19h39.6c4 .5 7 3.9 7 8v2.9c0 4.2-3 7.6-7 8.1zm-75.6 28.7h-61.5v-15.5h49.1c2.6 0 3.7-1.1 3.7-3.7v-9c0-2.6-1.1-3.7-3.7-3.7h-49.1v-15.5h61.6c2.6 0 3.7-1.1 3.7-3.7v-10.3c0-2.6-1.1-3.7-3.7-3.7h-76.8c-2.6 0-3.7 1.1-3.7 3.7v75.4c0 2.6 1.1 3.7 3.7 3.7h76.8c2.6 0 3.7-1.1 3.7-3.7v-10.2c0-2.7-1.3-3.8-3.8-3.8zm-94-38c.1-5.3-1.4-10.4-4.2-14.9-4.1-7.2-11.7-11.8-20-12.3h-56.4c-2.6 0-3.7 1.1-3.7 3.7v75.3c0 2.6 1.1 3.7 3.7 3.7h12.1c2.6 0 3.7-1 3.7-3.7v-61.4h32.7c7 0 13.7 4.6 13.7 11.6v49.9c0 2.6 1.1 3.7 3.7 3.7h11c2.6 0 3.7-1.1 3.7-3.7zm-101.5 37.5h-53.1l53.2-46.7c2.2-1.7 3.5-4.1 3.7-6.9v-7.4c0-2.6-1.1-3.7-3.7-3.7h-77c-2.6 0-3.7 1.1-3.7 3.7v10.3c0 2.6 1.1 3.7 3.7 3.7h49.3l-49.5 46.4c-2.1 1.7-3.5 4.1-3.7 6.9v8.1c0 2.6 1.1 3.7 3.7 3.7h76.9c2.6 0 3.7-1.1 3.7-3.7V539c.2-2.6-.9-3.7-3.5-3.7zm-97.9-64.7h-76.8c-2.6 0-3.7 1-3.7 3.7v10.3c0 2.6 1 3.7 3.7 3.7h29v61.4c0 2.6 1.1 3.7 3.7 3.7h12.3c2.6 0 3.7-1.1 3.7-3.7v-61.4h28.2c2.6 0 3.7-1.1 3.7-3.7v-10.2c-.1-2.6-1.2-3.8-3.8-3.8zm-97.8 65.2h-61.4v-15.5h49.1c2.6 0 3.7-1.1 3.7-3.7v-9c0-2.6-1-3.7-3.7-3.7h-49.1v-15.5h61.4c2.6 0 3.7-1.1 3.7-3.7v-10.3c0-2.6-1.1-3.7-3.7-3.7H276c-2.6 0-3.7 1.1-3.7 3.7v75.4c0 2.6 1.1 3.7 3.7 3.7h76.6c2.6 0 3.7-1.1 3.7-3.7v-10.2c0-2.7-1.1-3.8-3.7-3.8zm-97.8-65.2h-11.6c-2.6 0-3.7 1.1-3.7 3.7v29.3h-46.1v-29.3c0-2.6-1.1-3.7-3.7-3.7H178c-2.6 0-3.7 1.1-3.7 3.7v75.4c0 2.6 1.1 3.7 3.7 3.7h11.7c2.6 0 3.7-1 3.7-3.7v-29.8h46.2v29.8c0 2.6 1.1 3.7 3.7 3.7h11.6c2.6 0 3.7-1.1 3.7-3.7v-75.4c-.1-2.5-1.2-3.7-3.8-3.7z" fill="#d50c2d"/>
  </g>
</svg>
